# xmcd
#
# Track frame offsets:
#	150
#	10315
#	21524
#	34151
#	43591
#	55926
#	66269
#	76303
#	85694
#	95555
#	105545
#	117206
#	126032
#	137641
#	146275
#	157196
#	166489
#	174884
#	185730
#	198067
#	208790
#	219832
#	229912
#	239681
#	251096
#	259825
#	273331
#	284673
#	295977
#	306715
#	318589
#	331598
#	340176
#	350435
#	362251
#
# Disc length: 4957 seconds
#
# Revision: 3
# Processed by: cddbd v1.5.2PL0 Copyright (c) Steve Scherf et al.
# Submitted via: EZCDAudioConverter 7.1.4.1
#
DISCID=14135b23
DTITLE=George Jones - Heartbreak Hotel
DYEAR=2011
DGENRE=Country
TTITLE0=Rock It
TTITLE1=Tall Tall Trees
TTITLE2=White Lightnin'
TTITLE3=Vitamins L-O-V-E
TTITLE4=Sparkling Brown Eyes
TTITLE5=Why Baby Why
TTITLE6=Heartbreak Hotel
TTITLE7=Jesus Wants Me
TTITLE8=Too Much Water
TTITLE9=Just Little Boy Blue
TTITLE10=Revenooer Man
TTITLE11=If I Don't Love You (Grits Aint Groceries)
TTITLE12=You Gotta Be My Baby
TTITLE13=Hold Everything
TTITLE14=No Money In This Deal
TTITLE15=Maybe Little Baby
TTITLE16=One Woman Man
TTITLE17=How Come It
TTITLE18=Please Take The Devil Out Of Me
TTITLE19=Time Lock
TTITLE20=Who Shot Sam
TTITLE21=Slave Lover
TTITLE22=Did I Ever Tell You
TTITLE23=Eskimo Pie
TTITLE24=That's The Way I Feel
TTITLE25=Taggin' Along
TTITLE26=Gonna Come Get You
TTITLE27=Nothing Can Stop Me
TTITLE28=Someone Sweet To Love
TTITLE29=You Better Treat Your Man Right
TTITLE30=Baby (You Got What It Takes)
TTITLE31=Poor Man's Riches
TTITLE32=I'm Ragged But I'm Right
TTITLE33=Mexican Boogie (Boogie Woogie Mexican Boy)
TTITLE34=You All Goodnight
EXTD=
EXTT0=
EXTT1=
EXTT2=
EXTT3=
EXTT4=
EXTT5=
EXTT6=
EXTT7=
EXTT8=
EXTT9=
EXTT10=
EXTT11=
EXTT12=
EXTT13=
EXTT14=
EXTT15=
EXTT16=
EXTT17=
EXTT18=
EXTT19=
EXTT20=
EXTT21=
EXTT22=
EXTT23=
EXTT24=
EXTT25=
EXTT26=
EXTT27=
EXTT28=
EXTT29=
EXTT30=
EXTT31=
EXTT32=
EXTT33=
EXTT34=
PLAYORDER=
